<svg xmlns="http://www.w3.org/2000/svg" width="421px" height="454px" version="1.1"
viewBox="0 0 421 454"
 xmlns:xlink="http://www.w3.org/1999/xlink">
 <g id="Layer_x0020_1">
  <path fill="#fff" class="fil0" d="M196 452c124,0 225,-101 225,-225 0,-61 -24,-117 -64,-158 17,36 26,77 26,120 0,139 -100,252 -225,252 -3,0 -6,0 -9,0 120,-5 216,-116 216,-252 0,-56 -16,-107 -43,-149 -36,-24 -79,-38 -126,-38 -28,0 -54,5 -78,14l0 0c54,0 98,18 133,55 34,37 51,89 51,155 0,4 0,10 0,19l-302 0c3,44 15,78 38,102 22,23 50,35 84,35 25,0 47,-7 64,-20 18,-13 32,-34 43,-64l72 0c0,3 -1,7 -1,10 -11,41 -32,73 -62,96 -30,23 -69,34 -116,34 -1,0 -3,0 -4,0 24,9 50,14 78,14zm-192 -264l225 0c-3,-34 -11,-59 -25,-76 -22,-27 -51,-40 -85,-40 -32,0 -58,11 -80,32 -21,21 -33,49 -35,84z"/>
 </g>
</svg>
